<?xml version="1.0" encoding="utf-8"?>
<svg width="300px" height="60px" viewBox="0 0 838 134" version="1.1" xmlns="http://www.w3.org/2000/svg">
  <desc>Created with Lunacy</desc>
  <defs>
    <linearGradient gradientUnits="objectBoundingBox" cx="50%" cy="0%" fx="50%" fy="0%" r="436.3865%" id="gradient_1">
    		<stop offset="0%" style="stop-color:#F85F03;stop-opacity:1" />
    		<stop offset="40%" style="stop-color:#F9CB12;stop-opacity:1" />
    		<stop offset="60%" style="stop-color:#F9D213;stop-opacity:1" />
    		<stop offset="100%" style="stop-color:#F85803;stop-opacity:1" />
        </linearGradient>
    <filter filterUnits="userSpaceOnUse" color-interpolation-filters="sRGB" id="filter_1">
      <feFlood flood-opacity="0" result="BackgroundImageFix" />
      <feColorMatrix in="SourceAlpha" type="matrix" values="0 0 0 0 0 0 0 0 0 0 0 0 0 0 0 0 0 0 127 0" />
      <feOffset dx="0" dy="2" />
      <feGaussianBlur stdDeviation="5" />
      <feColorMatrix type="matrix" values="0 0 0 0 0.3921569 0 0 0 0 0.3921569 0 0 0 0 0.3921569 0 0 0 0.4980392 0" />
      <feBlend mode="normal" in2="BackgroundImageFix" result="effect0_dropShadow" />
      <feBlend mode="normal" in="SourceGraphic" in2="effect0_dropShadow" result="shape" />
    </filter>
  </defs>
  <g filter="url(#filter_1)">
    <path d="M0 0L40.1486 0.143608Q41.1088 0.147042 42.0669 0.21188Q43.0249 0.276717 43.9769 0.402693Q44.9288 0.528668 45.8708 0.715265Q46.8127 0.901861 47.7408 1.14832Q48.6689 1.39477 49.5793 1.70007Q50.4897 2.00538 51.3787 2.36828Q52.2677 2.73118 53.1317 3.1502Q53.9957 3.56921 54.8312 4.04262L63.0003 8.67182Q64.8342 9.71103 66.7313 10.63Q68.6283 11.5489 70.5805 12.3438Q72.5328 13.1387 74.5322 13.8062Q76.5315 14.4737 78.5698 15.011Q80.608 15.5484 82.6766 15.9534Q84.7452 16.3584 86.8356 16.6293Q88.9259 16.9002 91.0294 17.036Q93.1329 17.1717 95.2408 17.1717L703.622 17.1717Q705.619 17.1717 707.612 17.0356Q709.604 16.8995 711.582 16.6279Q713.561 16.3563 715.516 15.9506Q717.471 15.5448 719.394 15.0067Q721.318 14.4686 723.2 13.8007Q725.081 13.1328 726.914 12.3381Q728.746 11.5435 730.519 10.6259Q732.293 9.70823 734 8.67183L740.871 4.50021Q741.74 3.97227 742.644 3.50445Q743.547 3.03663 744.48 2.63108Q745.413 2.22552 746.371 1.8841Q747.329 1.54268 748.309 1.26695Q749.288 0.991225 750.283 0.782466Q751.279 0.573706 752.286 0.432872Q753.294 0.292038 754.309 0.219775Q755.323 0.147512 756.341 0.144154L791.975 0.0264981Q792.171 0.0258484 792.368 0.0348751Q792.565 0.0439018 792.76 0.0625831Q792.956 0.0812644 793.151 0.109555Q793.346 0.137846 793.539 0.175677Q793.732 0.213509 793.923 0.26079Q794.114 0.308071 794.302 0.364687Q794.491 0.421303 794.676 0.487117Q794.862 0.552931 795.044 0.627784Q795.226 0.702637 795.404 0.786348Q795.582 0.870059 795.756 0.962425Q795.929 1.05479 796.098 1.15559Q796.267 1.25639 796.431 1.36537Q796.595 1.47436 796.753 1.59127Q796.912 1.70818 797.064 1.83273Q797.216 1.95728 797.362 2.08917Q797.508 2.22106 797.648 2.35998Q797.787 2.49889 797.92 2.64449Q798.052 2.79009 798.177 2.94202Q798.302 3.09395 798.419 3.25184Q798.537 3.40974 798.646 3.57322Q798.756 3.7367 798.857 3.90536Q798.959 4.07403 799.052 4.24748Q799.145 4.42092 799.229 4.59873Q799.313 4.77653 799.389 4.95827Q799.464 5.14001 799.53 5.32523Q799.597 5.51046 799.654 5.69873Q799.711 5.887 799.759 6.07785Q799.807 6.26871 799.846 6.46169Q799.884 6.65467 799.913 6.84931Q799.942 7.04395 799.961 7.23977Q799.981 7.4356 799.99 7.63214Q800 7.82868 800 8.02545L800 86.6057Q800 86.8021 799.99 86.9982Q799.981 87.1943 799.961 87.3897Q799.942 87.5852 799.913 87.7794Q799.885 87.9736 799.846 88.1662Q799.808 88.3588 799.76 88.5493Q799.712 88.7398 799.655 88.9277Q799.598 89.1156 799.532 89.3005Q799.466 89.4854 799.391 89.6668Q799.316 89.8482 799.232 90.0257Q799.148 90.2032 799.055 90.3764Q798.963 90.5496 798.862 90.718Q798.761 90.8864 798.652 91.0497Q798.543 91.213 798.426 91.3707Q798.309 91.5284 798.184 91.6802Q798.06 91.832 797.928 91.9775Q797.796 92.123 797.657 92.2618Q797.518 92.4007 797.373 92.5326Q797.227 92.6644 797.076 92.789Q796.924 92.9136 796.766 93.0306Q796.608 93.1475 796.445 93.2566Q796.282 93.3657 796.113 93.4667Q795.945 93.5676 795.772 93.6602Q795.598 93.7527 795.421 93.8367Q795.243 93.9207 795.062 93.9958Q794.88 94.071 794.696 94.1371Q794.511 94.2033 794.323 94.2603Q794.135 94.3173 793.944 94.365Q793.754 94.4127 793.561 94.451Q793.369 94.4893 793.175 94.5181Q792.98 94.5469 792.785 94.5662Q792.59 94.5854 792.393 94.5951Q792.197 94.6047 792.001 94.6047L0 94.6047" transform="translate(18.99988 17.5)" id="Rectangle" fill="url(#gradient_1)" stroke="none" />
  </g>
</svg>